<svg width="169" height="112" viewBox="0 0 169 112" fill="none" xmlns="http://www.w3.org/2000/svg">
<path d="M66.2244 45.2261C66.0791 45.7184 66.3604 46.2352 66.8527 46.3805C67.345 46.5257 67.8618 46.2444 68.0071 45.7521L66.2244 45.2261ZM133.058 1.8132L132.903 2.72948L132.961 2.73936L133.02 2.74178L133.058 1.8132ZM167.314 46.3454L166.399 46.1808L166.387 46.2472L166.385 46.3146L167.314 46.3454ZM132.28 93.7955C131.999 94.2254 132.12 94.8012 132.55 95.0816L139.556 99.6507C139.986 99.931 140.562 99.8098 140.842 99.3799C141.123 98.95 141.001 98.3742 140.571 98.0938L134.344 94.0324L138.405 87.805C138.686 87.3751 138.565 86.7993 138.135 86.5189C137.705 86.2385 137.129 86.3597 136.849 86.7897L132.28 93.7955ZM68.0071 45.7521C74.0959 25.1183 86.1857 13.6916 98.792 7.74941C111.435 1.78979 124.641 1.3292 132.903 2.72948L133.214 0.896925C124.633 -0.557422 111.034 -0.0759181 97.9995 6.06814C84.928 12.2296 72.4678 24.0683 66.2244 45.2261L68.0071 45.7521ZM133.02 2.74178C149.485 3.41376 158.381 10.7972 162.911 19.6635C167.48 28.6076 167.659 39.1773 166.399 46.1808L168.228 46.51C169.537 39.2404 169.374 28.229 164.566 18.8179C159.718 9.32893 150.202 1.58281 133.096 0.88463L133.02 2.74178ZM166.385 46.3146C166.25 50.3809 164.772 55.2269 162.407 60.2864C160.048 65.3329 156.836 70.5292 153.297 75.2792C149.758 80.03 145.91 84.3128 142.289 87.5401C138.635 90.7977 135.327 92.8759 132.866 93.3938L133.249 95.2126C136.213 94.5887 139.829 92.2233 143.526 88.9275C147.258 85.6013 151.189 81.2206 154.788 76.3896C158.387 71.5579 161.669 66.2539 164.091 61.0735C166.507 55.9062 168.096 50.7986 168.242 46.3762L166.385 46.3146Z" fill="#ED5D2C"/>
<path d="M26.7152 80.7613C26.4878 80.8223 26.2637 80.8275 26.043 80.7769C25.8336 80.7234 25.7031 80.5999 25.6513 80.4066L22.6258 69.1156C22.571 68.9109 22.6224 68.7387 22.7799 68.599C22.9488 68.4563 23.147 68.3544 23.3744 68.2935C23.6018 68.2326 23.8187 68.2232 24.025 68.2654C24.2427 68.3046 24.3789 68.4265 24.4338 68.6312L27.4592 79.9222C27.511 80.1155 27.4539 80.2892 27.2881 80.4433C27.1336 80.5944 26.9426 80.7004 26.7152 80.7613ZM30.6769 79.6998C30.4382 79.7638 30.2296 79.7587 30.0513 79.6846C29.8731 79.6105 29.7626 79.4939 29.7199 79.3347L26.6899 68.0266C26.6473 67.8674 26.6846 67.7112 26.802 67.5579C26.9193 67.4046 27.0974 67.2959 27.3362 67.2319L30.3551 66.423C31.0714 66.2311 31.7531 66.1825 32.4 66.2773C33.0583 66.369 33.627 66.6492 34.106 67.1181C34.5964 67.5838 34.965 68.2772 35.2118 69.1982L36.5143 74.0591C36.7611 74.9802 36.7885 75.765 36.5967 76.4135C36.4163 77.059 36.0639 77.5861 35.5397 77.9947C35.0268 78.4002 34.4122 78.6989 33.6958 78.8909L30.6769 79.6998ZM31.2537 77.8269L33.2663 77.2876C33.903 77.117 34.3504 76.8082 34.6084 76.3613C34.8748 75.8999 34.9074 75.294 34.7064 74.5436L33.4039 69.6826C33.2028 68.9322 32.8731 68.4295 32.4148 68.1745C31.9648 67.9051 31.4214 67.8557 30.7847 68.0263L28.7721 68.5656L31.2537 77.8269ZM40.4541 77.08C40.2608 77.1318 40.0652 77.1294 39.8672 77.0728C39.6692 77.0161 39.5443 76.8912 39.4925 76.6979L36.4717 65.4239C36.4199 65.2306 36.4656 65.0599 36.6087 64.9119C36.7518 64.7639 36.9201 64.6639 37.1134 64.6122L43.1853 62.9852C43.4013 62.9273 43.5776 62.9715 43.7143 63.1176C43.851 63.2638 43.9437 63.4279 43.9924 63.6098C44.0503 63.8258 44.051 64.0329 43.9943 64.2308C43.9346 64.4174 43.8081 64.5367 43.6148 64.5884L38.5492 65.9458L39.5958 69.8516L42.2224 69.1478C42.4157 69.096 42.5833 69.1303 42.7253 69.2507C42.8672 69.3711 42.9641 69.5279 43.0159 69.7212C43.0585 69.8804 43.0557 70.0518 43.0074 70.2353C42.956 70.4075 42.8223 70.5226 42.6063 70.5805L39.9797 71.2843L41.0308 75.2071L46.0964 73.8498C46.2897 73.798 46.4589 73.838 46.6039 73.9698C46.7488 74.1015 46.8518 74.2811 46.9127 74.5085C46.9615 74.6905 46.9632 74.8789 46.918 75.0738C46.8727 75.2688 46.742 75.3952 46.526 75.4531L40.4541 77.08ZM49.4675 74.6649C49.2401 74.7258 49.016 74.731 48.7953 74.6805C48.5859 74.6269 48.4554 74.5034 48.4036 74.3101L45.3827 63.0362C45.3248 62.8202 45.3747 62.6423 45.5322 62.5026C45.7011 62.3598 45.8993 62.258 46.1267 62.197C46.3428 62.1391 46.5338 62.1245 46.6999 62.1531C46.8744 62.1673 47.0439 62.2316 47.2086 62.3459C47.3733 62.4602 47.5589 62.6298 47.7654 62.8548L53.5307 69.2254L51.433 61.3968C51.3782 61.1921 51.4295 61.0199 51.5871 60.8802C51.756 60.7374 51.9542 60.6356 52.1816 60.5746C52.409 60.5137 52.6258 60.5043 52.8321 60.5466C53.0498 60.5857 53.1861 60.7076 53.2409 60.9123L56.2663 72.2033C56.3181 72.3966 56.2611 72.5703 56.0952 72.7245C55.9407 72.8756 55.7497 72.9816 55.5223 73.0425C55.2949 73.1034 55.075 73.1014 54.8626 73.0365C54.6502 72.9715 54.4525 72.8478 54.2696 72.6652L48.1138 65.9971L50.2115 73.8257C50.2633 74.019 50.2062 74.1927 50.0404 74.3469C49.8859 74.4979 49.6949 74.604 49.4675 74.6649ZM61.8633 71.3434C61.6358 71.4044 61.4118 71.4096 61.1911 71.359C60.9817 71.3055 60.8511 71.182 60.7993 70.9887L58.0618 60.7722L55.4182 61.4806C55.2363 61.5293 55.0713 61.4821 54.9232 61.339C54.7752 61.1959 54.6722 61.0163 54.6143 60.8002C54.5595 60.5956 54.5547 60.3958 54.6 60.2008C54.6452 60.0059 54.7702 59.881 54.9749 59.8262L62.0531 57.9296C62.2691 57.8717 62.4455 57.9158 62.5821 58.062C62.7188 58.2082 62.813 58.3779 62.8648 58.5712C62.9258 58.7987 62.9279 59.0114 62.8713 59.2093C62.826 59.4043 62.701 59.5292 62.4964 59.584L59.8698 60.2878L62.6073 70.5043C62.6591 70.6976 62.602 70.8713 62.4361 71.0254C62.2816 71.1765 62.0907 71.2825 61.8633 71.3434ZM68.2057 69.644C67.9782 69.7049 67.7542 69.7101 67.5335 69.6596C67.3241 69.606 67.1935 69.4826 67.1417 69.2893L64.1163 57.9983C64.0615 57.7936 64.1128 57.6214 64.2704 57.4817C64.4393 57.3389 64.6375 57.2371 64.8649 57.1761C65.0923 57.1152 65.3092 57.1059 65.5155 57.1481C65.7331 57.1872 65.8694 57.3092 65.9242 57.5138L68.9497 68.8048C69.0015 68.9981 68.9444 69.1719 68.7785 69.326C68.624 69.4771 68.4331 69.5831 68.2057 69.644ZM72.2698 68.555C72.0423 68.616 71.8198 68.6269 71.6021 68.5877C71.3928 68.5341 71.2607 68.405 71.2058 68.2003L68.185 56.9263C68.1332 56.733 68.1789 56.5624 68.322 56.4143C68.4651 56.2663 68.6334 56.1664 68.8267 56.1146L74.8133 54.5105C75.018 54.4556 75.1886 54.5013 75.3253 54.6475C75.462 54.7937 75.5547 54.9577 75.6034 55.1397C75.6613 55.3557 75.6619 55.5627 75.6053 55.7607C75.557 55.9443 75.4362 56.0619 75.2429 56.1137L70.2626 57.4482L71.3091 61.354L73.9528 60.6456C74.1461 60.5939 74.308 60.6297 74.4386 60.7531C74.5805 60.8735 74.6774 61.0304 74.7292 61.2237C74.7718 61.3829 74.769 61.5542 74.7207 61.7378C74.6694 61.91 74.5413 62.0235 74.3367 62.0783L71.693 62.7867L73.0138 67.7159C73.0686 67.9205 73.0131 68.0999 72.8472 68.2541C72.6897 68.3938 72.4972 68.4941 72.2698 68.555ZM83.5762 65.5255C83.3488 65.5864 83.1247 65.5916 82.904 65.5411C82.6947 65.4875 82.5641 65.364 82.5123 65.1707L81.3561 60.8556C81.3378 60.7874 81.304 60.7294 81.2546 60.6817L76.0194 55.2659C75.9814 55.2151 75.9522 55.1742 75.9317 55.1431C75.9195 55.0976 75.9088 55.0578 75.8997 55.0237C75.8601 54.8759 75.8891 54.7341 75.9868 54.5982C76.0814 54.451 76.2048 54.3204 76.3571 54.2065C76.5207 54.0895 76.6822 54.0097 76.8413 53.9671C76.9892 53.9275 77.112 53.9311 77.2099 53.978C77.3191 54.0219 77.4261 54.1029 77.5309 54.221L81.7939 58.8737L83.1423 52.7175C83.1853 52.5597 83.2375 52.436 83.2988 52.3465C83.3715 52.2539 83.4818 52.1878 83.6296 52.1482C83.7888 52.1055 83.9628 52.0954 84.1516 52.118C84.3518 52.1374 84.5297 52.1873 84.6853 52.2675C84.8378 52.3363 84.9338 52.4446 84.9734 52.5924C84.9826 52.6265 84.9875 52.6679 84.9884 52.7164C84.9975 52.7505 84.9926 52.8006 84.9737 52.8665L83.1649 60.1698C83.146 60.2358 83.1457 60.3029 83.164 60.3712L84.3202 64.6863C84.372 64.8796 84.315 65.0533 84.1491 65.2075C83.9946 65.3585 83.8036 65.4645 83.5762 65.5255ZM96.4681 62.0711C96.2407 62.1321 96.0166 62.1372 95.7959 62.0867C95.5865 62.0331 95.456 61.9097 95.4042 61.7164L94.2479 57.4012C94.2296 57.333 94.1958 57.275 94.1465 57.2273L88.9113 51.8115C88.8733 51.7607 88.844 51.7198 88.8235 51.6888C88.8113 51.6433 88.8007 51.6035 88.7915 51.5694C88.7519 51.4215 88.781 51.2797 88.8786 51.1439C88.9732 50.9966 89.0967 50.8661 89.2489 50.7521C89.4126 50.6352 89.574 50.5554 89.7332 50.5127C89.881 50.4731 90.0039 50.4767 90.1017 50.5236C90.211 50.5675 90.318 50.6485 90.4228 50.7667L94.6857 55.4193L96.0342 49.2631C96.0772 49.1053 96.1294 48.9817 96.1907 48.8921C96.2634 48.7995 96.3736 48.7334 96.5214 48.6938C96.6806 48.6511 96.8547 48.6411 97.0435 48.6636C97.2437 48.6831 97.4216 48.7329 97.5771 48.8131C97.7296 48.8819 97.8257 48.9902 97.8653 49.1381C97.8744 49.1722 97.8794 49.2135 97.8802 49.262C97.8894 49.2961 97.8845 49.3462 97.8656 49.4122L96.0567 56.7155C96.0379 56.7815 96.0376 56.8486 96.0558 56.9168L97.2121 61.2319C97.2639 61.4252 97.2068 61.599 97.041 61.7531C96.8865 61.9042 96.6955 62.0102 96.4681 62.0711ZM105.858 59.6647C105.131 59.8597 104.443 59.9098 103.796 59.815C103.161 59.7172 102.598 59.4354 102.107 58.9697C101.628 58.5009 101.265 57.806 101.019 56.8849L99.6887 51.9217C99.4419 51.0007 99.4087 50.2174 99.5892 49.5719C99.781 48.9233 100.128 48.3978 100.629 47.9953C101.142 47.5898 101.762 47.2895 102.49 47.0945C103.206 46.9026 103.888 46.854 104.535 46.9487C105.182 47.0435 105.751 47.3238 106.241 47.7895C106.731 48.2553 107.1 48.9487 107.347 49.8697L108.677 54.833C108.923 55.754 108.951 56.5388 108.759 57.1873C108.567 57.8359 108.215 58.3629 107.702 58.7685C107.189 59.174 106.575 59.4728 105.858 59.6647ZM105.429 58.0615C106.054 57.8939 106.501 57.5851 106.771 57.1351C107.037 56.6738 107.07 56.0679 106.869 55.3174L105.539 50.3541C105.338 49.6037 105.008 49.1009 104.55 48.846C104.1 48.5765 103.556 48.5271 102.92 48.6978C102.283 48.8684 101.831 49.1844 101.565 49.6457C101.307 50.0927 101.278 50.6914 101.48 51.4418L102.809 56.4051C103.011 57.1555 103.336 57.6655 103.786 57.9349C104.244 58.1899 104.792 58.2321 105.429 58.0615ZM115.655 57.0396C114.928 57.2346 114.235 57.2862 113.576 57.1945C112.918 57.1028 112.344 56.824 111.853 56.3583C111.363 55.8925 110.994 55.1991 110.747 54.2781L108.554 46.0913C108.499 45.8866 108.55 45.7144 108.708 45.5747C108.865 45.435 109.064 45.3332 109.302 45.2692C109.518 45.2113 109.735 45.2019 109.953 45.2411C110.171 45.2803 110.307 45.4022 110.362 45.6069L112.555 53.7937C112.756 54.5442 113.088 55.0526 113.549 55.3189C114.007 55.5739 114.566 55.6131 115.226 55.4364C115.874 55.2627 116.338 54.9493 116.619 54.4963C116.897 54.0319 116.935 53.4245 116.734 52.674L114.54 44.4872C114.486 44.2825 114.537 44.1103 114.694 43.9706C114.852 43.8309 115.05 43.729 115.289 43.6651C115.505 43.6072 115.722 43.5978 115.94 43.637C116.157 43.6762 116.293 43.7981 116.348 44.0028L118.542 52.1896C118.789 53.1106 118.811 53.8969 118.607 54.5485C118.415 55.1971 118.057 55.7257 117.533 56.1342C117.009 56.5428 116.383 56.8446 115.655 57.0396ZM128.451 53.5561C128.303 53.5957 128.153 53.5811 128.001 53.5123C127.859 53.4405 127.729 53.3413 127.61 53.2148L123.796 49.0086L122.09 49.4656L123.365 54.2242C123.417 54.4175 123.36 54.5912 123.194 54.7454C123.04 54.8964 122.849 55.0024 122.621 55.0634C122.394 55.1243 122.17 55.1295 121.949 55.079C121.74 55.0254 121.609 54.9019 121.557 54.7086L118.532 43.4176C118.489 43.2584 118.504 43.1083 118.576 42.9672C118.659 42.823 118.797 42.725 118.991 42.6732L122.231 41.8049C122.948 41.6129 123.63 41.5458 124.279 41.6034C124.926 41.6496 125.493 41.8814 125.983 42.2986C126.47 42.7044 126.832 43.3508 127.069 44.2377C127.252 44.92 127.296 45.5174 127.202 46.0302C127.119 46.5398 126.933 46.9799 126.642 47.3502C126.36 47.7062 126.008 48.0077 125.586 48.2546L129.176 52.1005C129.208 52.1285 129.237 52.1694 129.264 52.2232C129.287 52.2657 129.304 52.304 129.313 52.3381C129.353 52.4859 129.335 52.6489 129.261 52.8272C129.184 52.9941 129.072 53.1459 128.926 53.2826C128.791 53.4162 128.633 53.5074 128.451 53.5561ZM121.702 48.0159L123.748 47.4674C124.385 47.2968 124.85 47.0077 125.143 46.6002C125.447 46.1896 125.501 45.6148 125.303 44.8757C125.104 44.1366 124.771 43.6653 124.302 43.4619C123.845 43.2554 123.298 43.2375 122.661 43.4081L120.614 43.9566L121.702 48.0159ZM23.1984 104.48C22.9709 104.541 22.7469 104.546 22.5262 104.495C22.3168 104.442 22.1862 104.318 22.1344 104.125L19.1136 92.8511C19.0557 92.635 19.1055 92.4571 19.2631 92.3174C19.432 92.1747 19.6302 92.0728 19.8576 92.0119C20.0736 91.954 20.2647 91.9394 20.4308 91.968C20.6052 91.9822 20.7748 92.0464 20.9395 92.1607C21.1041 92.275 21.2898 92.4447 21.4963 92.6696L27.2615 99.0403L25.1639 91.2116C25.109 91.0069 25.1604 90.8348 25.3179 90.695C25.4869 90.5523 25.685 90.4504 25.9124 90.3895C26.1399 90.3286 26.3567 90.3192 26.563 90.3614C26.7807 90.4006 26.9169 90.5225 26.9718 90.7272L29.9972 102.018C30.049 102.211 29.992 102.385 29.8261 102.539C29.6716 102.69 29.4806 102.796 29.2532 102.857C29.0258 102.918 28.8059 102.916 28.5935 102.851C28.3811 102.786 28.1834 102.663 28.0004 102.48L21.8447 95.8119L23.9424 103.641C23.9942 103.834 23.9371 104.008 23.7712 104.162C23.6167 104.313 23.4258 104.419 23.1984 104.48ZM33.2063 101.798C33.013 101.85 32.8174 101.848 32.6194 101.791C32.4214 101.734 32.2965 101.609 32.2447 101.416L29.2239 90.142C29.1721 89.9487 29.2177 89.7781 29.3609 89.63C29.504 89.482 29.6722 89.3821 29.8655 89.3303L35.9374 87.7033C36.1535 87.6454 36.3298 87.6896 36.4665 87.8358C36.6032 87.9819 36.6959 88.146 36.7446 88.3279C36.8025 88.544 36.8031 88.751 36.7465 88.949C36.6868 89.1356 36.5603 89.2548 36.367 89.3066L31.3014 90.6639L32.348 94.5697L34.9746 93.8659C35.1679 93.8141 35.3355 93.8484 35.4775 93.9688C35.6194 94.0892 35.7163 94.246 35.7681 94.4393C35.8107 94.5985 35.8079 94.7699 35.7596 94.9535C35.7082 95.1257 35.5745 95.2407 35.3585 95.2986L32.7319 96.0024L33.783 99.9252L38.8486 98.5679C39.0419 98.5161 39.2111 98.5561 39.356 98.6879C39.501 98.8196 39.604 98.9992 39.6649 99.2266C39.7137 99.4086 39.7154 99.597 39.6702 99.7919C39.6249 99.9869 39.4942 100.113 39.2782 100.171L33.2063 101.798ZM41.6364 99.5941C41.4772 99.6368 41.296 99.6427 41.0928 99.6118C40.8895 99.581 40.7071 99.5141 40.5454 99.4112C40.3838 99.3082 40.2816 99.1772 40.239 99.018C40.2085 98.9043 40.2163 98.7742 40.2624 98.6278L41.8433 92.7932L37.6513 88.542C37.5177 88.4072 37.4326 88.2715 37.396 88.1351C37.3534 87.9759 37.3722 87.8185 37.4523 87.663C37.5325 87.5075 37.6488 87.3727 37.8011 87.2588C37.9647 87.1418 38.1318 87.0605 38.3024 87.0148C38.4729 86.9691 38.6231 86.9837 38.7528 87.0586C38.8909 87.1191 39.0139 87.2141 39.1217 87.3437L42.6624 91.0747L43.8632 86.0732C43.9032 85.904 43.9679 85.7587 44.0572 85.6373C44.1435 85.5045 44.2606 85.4183 44.4084 85.3787C44.5789 85.333 44.7586 85.3214 44.9475 85.3439C45.1477 85.3634 45.3214 85.4204 45.4686 85.515C45.6272 85.6066 45.7278 85.732 45.7705 85.8912C45.8071 86.0276 45.8012 86.1876 45.7529 86.3712L44.2311 92.1534L48.5345 96.4113C48.6363 96.5181 48.7024 96.6284 48.7328 96.7421C48.7755 96.9013 48.7525 97.0658 48.664 97.2358C48.5755 97.4058 48.451 97.5549 48.2904 97.6833C48.1411 97.8085 47.9812 97.894 47.8107 97.9397C47.6856 97.9733 47.5612 97.9639 47.4376 97.9118C47.3108 97.8482 47.2054 97.7729 47.1211 97.6858L43.3982 93.8207L42.1066 99.0294C42.0772 99.147 42.0235 99.2649 41.9456 99.3833C41.8759 99.4873 41.7729 99.5576 41.6364 99.5941ZM53.5495 96.3472C53.322 96.4081 53.098 96.4133 52.8773 96.3628C52.6679 96.3092 52.5373 96.1858 52.4855 95.9925L49.748 85.776L47.1044 86.4843C46.9224 86.5331 46.7575 86.4859 46.6094 86.3428C46.4614 86.1996 46.3584 86.02 46.3005 85.804C46.2457 85.5993 46.2409 85.3995 46.2862 85.2046C46.3314 85.0097 46.4564 84.8848 46.6611 84.8299L53.7393 82.9333C53.9553 82.8754 54.1317 82.9196 54.2683 83.0658C54.405 83.212 54.4992 83.3817 54.551 83.575C54.612 83.8024 54.6141 84.0151 54.5575 84.2131C54.5122 84.408 54.3872 84.5329 54.1826 84.5877L51.556 85.2915L54.2935 95.508C54.3453 95.7013 54.2882 95.875 54.1223 96.0292C53.9678 96.1803 53.7769 96.2863 53.5495 96.3472ZM63.3064 93.7328C63.0789 93.7938 62.8549 93.799 62.6342 93.7484C62.4248 93.6949 62.2942 93.5714 62.2424 93.3781L59.217 82.0871C59.1622 81.8824 59.2135 81.7102 59.3711 81.5705C59.54 81.4278 59.7382 81.3259 59.9656 81.265C60.193 81.204 60.4099 81.1947 60.6162 81.2369C60.8339 81.2761 60.9701 81.398 61.025 81.6027L64.0504 92.8937C64.1022 93.087 64.0451 93.2607 63.8792 93.4148C63.7247 93.5659 63.5338 93.6719 63.3064 93.7328ZM67.3705 92.6439C67.1431 92.7048 66.919 92.71 66.6983 92.6595C66.4889 92.6059 66.3583 92.4824 66.3065 92.2891L63.2857 81.0152C63.2278 80.7991 63.2776 80.6213 63.4352 80.4816C63.6041 80.3388 63.8023 80.2369 64.0297 80.176C64.2458 80.1181 64.4368 80.1035 64.6029 80.1321C64.7773 80.1463 64.9469 80.2106 65.1116 80.3249C65.2763 80.4392 65.4619 80.6088 65.6684 80.8338L71.4337 87.2044L69.336 79.3757C69.2811 79.1711 69.3325 78.9989 69.49 78.8592C69.659 78.7164 69.8571 78.6146 70.0846 78.5536C70.312 78.4927 70.5288 78.4833 70.7351 78.5255C70.9528 78.5647 71.0891 78.6866 71.1439 78.8913L74.1693 90.1823C74.2211 90.3756 74.1641 90.5493 73.9982 90.7035C73.8437 90.8545 73.6527 90.9605 73.4253 91.0215C73.1979 91.0824 72.978 91.0804 72.7656 91.0154C72.5532 90.9505 72.3555 90.8267 72.1726 90.6442L66.0168 83.976L68.1145 91.8047C68.1663 91.998 68.1092 92.1717 67.9433 92.3258C67.7888 92.4769 67.5979 92.5829 67.3705 92.6439ZM77.4807 89.9348C77.2533 89.9958 77.0308 90.0066 76.8131 89.9675C76.6038 89.9139 76.4717 89.7848 76.4168 89.5801L73.396 78.3061C73.3442 78.1128 73.3899 77.9422 73.533 77.7941C73.6761 77.6461 73.8444 77.5462 74.0377 77.4944L80.0243 75.8903C80.2289 75.8354 80.3996 75.8811 80.5363 76.0273C80.6729 76.1735 80.7657 76.3375 80.8144 76.5195C80.8723 76.7355 80.8729 76.9425 80.8163 77.1405C80.768 77.3241 80.6472 77.4417 80.4539 77.4935L75.4735 78.828L76.5201 82.7338L79.1638 82.0254C79.3571 81.9736 79.519 82.0095 79.6496 82.1329C79.7915 82.2533 79.8884 82.4102 79.9402 82.6035C79.9828 82.7626 79.98 82.934 79.9317 83.1176C79.8803 83.2898 79.7523 83.4033 79.5477 83.4581L76.904 84.1665L78.2248 89.0957C78.2796 89.3003 78.2241 89.4797 78.0582 89.6339C77.9006 89.7736 77.7082 89.8739 77.4807 89.9348ZM85.973 87.6593C85.7797 87.7111 85.584 87.7087 85.3861 87.6521C85.1881 87.5954 85.0632 87.4705 85.0114 87.2772L81.986 75.9862C81.9311 75.7815 81.9825 75.6093 82.1401 75.4696C82.309 75.3268 82.5072 75.225 82.7346 75.1641C82.962 75.1031 83.1788 75.0938 83.3851 75.136C83.6028 75.1752 83.7391 75.2971 83.7939 75.5017L86.5497 85.7865L90.9842 84.5982C91.1662 84.5495 91.3255 84.5982 91.4621 84.7444C91.5957 84.8792 91.69 85.0489 91.7448 85.2536C91.7966 85.4469 91.7999 85.641 91.7546 85.836C91.7093 86.0309 91.5957 86.1527 91.4138 86.2015L85.973 87.6593ZM96.8148 84.864C96.0871 85.059 95.3941 85.1106 94.7358 85.0189C94.0775 84.9272 93.5031 84.6484 93.0127 84.1827C92.5223 83.7169 92.1537 83.0235 91.9069 82.1025L89.7132 73.9157C89.6584 73.711 89.7098 73.5388 89.8673 73.3991C90.0249 73.2594 90.223 73.1575 90.4618 73.0935C90.6779 73.0357 90.8947 73.0263 91.1124 73.0655C91.3301 73.1046 91.4663 73.2266 91.5212 73.4312L93.7148 81.6181C93.9159 82.3685 94.2471 82.8769 94.7085 83.1433C95.1668 83.3983 95.7257 83.4374 96.3852 83.2607C97.0333 83.0871 97.4978 82.7737 97.7785 82.3207C98.0563 81.8563 98.0946 81.2488 97.8935 80.4984L95.6999 72.3116C95.645 72.1069 95.6964 71.9347 95.8539 71.795C96.0115 71.6553 96.2097 71.5534 96.4484 71.4894C96.6645 71.4315 96.8813 71.4222 97.099 71.4614C97.3167 71.5005 97.453 71.6225 97.5078 71.8271L99.7014 80.014C99.9482 80.935 99.97 81.7213 99.7668 82.3729C99.575 83.0215 99.217 83.55 98.6927 83.9586C98.1685 84.3672 97.5425 84.669 96.8148 84.864ZM103.678 82.9152C103.485 82.967 103.29 82.9645 103.092 82.9079C102.894 82.8513 102.769 82.7263 102.717 82.533L99.696 71.2591C99.6443 71.0658 99.6899 70.8951 99.8331 70.7471C99.9762 70.599 100.144 70.4991 100.338 70.4473L106.41 68.8203C106.626 68.7625 106.802 68.8066 106.939 68.9528C107.075 69.099 107.168 69.263 107.217 69.445C107.275 69.661 107.275 69.868 107.219 70.066C107.159 70.2526 107.033 70.3718 106.839 70.4236L101.774 71.7809L102.82 75.6867L105.447 74.9829C105.64 74.9311 105.808 74.9654 105.95 75.0858C106.092 75.2062 106.188 75.3631 106.24 75.5564C106.283 75.7156 106.28 75.8869 106.232 76.0705C106.18 76.2427 106.047 76.3577 105.831 76.4156L103.204 77.1194L104.255 81.0423L109.321 79.685C109.514 79.6332 109.683 79.6731 109.828 79.8049C109.973 79.9367 110.076 80.1163 110.137 80.3437C110.186 80.5256 110.188 80.714 110.142 80.909C110.097 81.1039 109.966 81.2303 109.75 81.2882L103.678 82.9152ZM112.692 80.5C112.464 80.561 112.24 80.5662 112.02 80.5156C111.81 80.462 111.68 80.3386 111.628 80.1453L108.607 68.8714C108.549 68.6553 108.599 68.4774 108.757 68.3377C108.926 68.195 109.124 68.0931 109.351 68.0322C109.567 67.9743 109.758 67.9597 109.924 67.9883C110.099 68.0025 110.268 68.0667 110.433 68.181C110.598 68.2953 110.783 68.465 110.99 68.6899L116.755 75.0606L114.657 67.2319C114.603 67.0272 114.654 66.855 114.811 66.7153C114.98 66.5726 115.179 66.4707 115.406 66.4098C115.633 66.3489 115.85 66.3395 116.057 66.3817C116.274 66.4209 116.41 66.5428 116.465 66.7475L119.491 78.0385C119.542 78.2318 119.485 78.4055 119.32 78.5596C119.165 78.7107 118.974 78.8167 118.747 78.8777C118.519 78.9386 118.299 78.9366 118.087 78.8716C117.875 78.8067 117.677 78.6829 117.494 78.5004L111.338 71.8322L113.436 79.6609C113.488 79.8542 113.431 80.0279 113.265 80.182C113.11 80.3331 112.919 80.4391 112.692 80.5ZM125.576 77.1576C124.893 77.3404 124.229 77.3844 123.582 77.2896C122.946 77.1918 122.383 76.91 121.893 76.4442C121.402 75.9785 121.034 75.2851 120.787 74.3641L119.457 69.4008C119.21 68.4798 119.183 67.695 119.375 67.0464C119.567 66.3979 119.919 65.8708 120.432 65.4653C120.945 65.0598 121.542 64.7656 122.224 64.5828C123.009 64.3726 123.722 64.3277 124.364 64.4483C125.014 64.5544 125.56 64.7979 126.004 65.1788C126.455 65.5453 126.762 66.0298 126.923 66.6325C127.027 67.0191 127.022 67.2947 126.907 67.4594C126.79 67.6127 126.578 67.7305 126.271 67.8128C125.998 67.8859 125.77 67.8983 125.586 67.85C125.399 67.7903 125.273 67.6597 125.207 67.458C125.156 67.3133 125.08 67.1446 124.98 66.9522C124.88 66.7597 124.735 66.5851 124.547 66.4283C124.367 66.2572 124.13 66.1441 123.835 66.0891C123.536 66.0227 123.16 66.0505 122.705 66.1723C122.046 66.349 121.588 66.6665 121.333 67.1249C121.075 67.5718 121.047 68.1705 121.248 68.921L122.578 73.8842C122.779 74.6347 123.105 75.1446 123.555 75.414C124.013 75.669 124.583 75.7051 125.265 75.5223C125.697 75.4065 126.022 75.2526 126.238 75.0605C126.463 74.854 126.613 74.6373 126.686 74.4105C126.756 74.1723 126.785 73.9391 126.773 73.7109C126.757 73.4713 126.736 73.2574 126.71 73.0694C126.664 72.8503 126.708 72.674 126.843 72.5404C126.989 72.4037 127.187 72.3019 127.437 72.2348C127.756 72.1495 128.006 72.1496 128.187 72.2351C128.368 72.3205 128.509 72.5509 128.61 72.9261C128.774 73.5401 128.757 74.1358 128.558 74.7131C128.368 75.2759 128.019 75.7715 127.513 76.1998C127.006 76.6281 126.36 76.9473 125.576 77.1576ZM131.927 75.3459C131.734 75.3977 131.538 75.3953 131.34 75.3387C131.142 75.282 131.018 75.1571 130.966 74.9638L127.945 63.6898C127.893 63.4965 127.939 63.3258 128.082 63.1778C128.225 63.0298 128.393 62.9299 128.587 62.8781L134.658 61.2511C134.874 61.1932 135.051 61.2374 135.188 61.3835C135.324 61.5297 135.417 61.6938 135.466 61.8757C135.524 62.0918 135.524 62.2988 135.468 62.4967C135.408 62.6834 135.281 62.8026 135.088 62.8544L130.022 64.2117L131.069 68.1175L133.696 67.4137C133.889 67.3619 134.057 67.3962 134.198 67.5166C134.34 67.637 134.437 67.7938 134.489 67.9871C134.532 68.1463 134.529 68.3177 134.481 68.5013C134.429 68.6734 134.296 68.7885 134.079 68.8464L131.453 69.5502L132.504 73.473L137.57 72.1157C137.763 72.0639 137.932 72.1039 138.077 72.2357C138.222 72.3674 138.325 72.547 138.386 72.7744C138.435 72.9564 138.436 73.1448 138.391 73.3397C138.346 73.5347 138.215 73.6611 137.999 73.719L131.927 75.3459ZM146.77 71.4236C146.623 71.4632 146.472 71.4486 146.32 71.3797C146.179 71.3079 146.049 71.2087 145.929 71.0822L142.115 66.876L140.41 67.333L141.685 72.0916C141.736 72.2849 141.679 72.4586 141.514 72.6128C141.359 72.7638 141.168 72.8699 140.941 72.9308C140.713 72.9917 140.489 72.9969 140.268 72.9464C140.059 72.8928 139.929 72.7694 139.877 72.5761L136.851 61.285C136.809 61.1259 136.823 60.9757 136.895 60.8346C136.978 60.6904 137.117 60.5924 137.31 60.5406L140.551 59.6723C141.267 59.4804 141.95 59.4132 142.599 59.4708C143.245 59.517 143.813 59.7488 144.302 60.166C144.789 60.5719 145.151 61.2182 145.389 62.1051C145.572 62.7874 145.616 63.3849 145.522 63.8976C145.439 64.4072 145.252 64.8473 144.961 65.2177C144.679 65.5736 144.327 65.8751 143.906 66.122L147.496 69.9679C147.527 69.9959 147.557 70.0368 147.583 70.0907C147.607 70.1331 147.623 70.1714 147.632 70.2055C147.672 70.3533 147.655 70.5163 147.581 70.6946C147.503 70.8615 147.392 71.0133 147.246 71.15C147.111 71.2836 146.952 71.3748 146.77 71.4236ZM140.021 65.8833L142.068 65.3349C142.705 65.1642 143.169 64.8752 143.462 64.4676C143.767 64.057 143.82 63.4822 143.622 62.7431C143.424 62.004 143.09 61.5327 142.622 61.3293C142.164 61.1229 141.617 61.1049 140.98 61.2756L138.933 61.824L140.021 65.8833Z" fill="#ED5D2C"/>
</svg>
