<svg width="824" height="534" viewBox="0 0 824 534" fill="none" xmlns="http://www.w3.org/2000/svg">
<g opacity="0.5" filter="url(#filter0_f_50_255)">
<path d="M623.5 300C623.5 318.778 528.808 334 412 334C295.192 334 200.5 318.778 200.5 300C200.5 281.222 295.192 266 412 266C528.808 266 623.5 281.222 623.5 300Z" fill="#DB14F1"/>
</g>
<rect x="181" y="49.5" width="479" height="308" rx="19.5" stroke="#B7B7B7" stroke-dasharray="5 5"/>
<rect x="207.5" y="81" width="426" height="245" rx="20" fill="#2E2E2E"/>
<path d="M605.942 173.365C614.076 179.266 624.045 232.588 630.265 273.519C632.081 285.465 622.775 296.111 610.692 296.137L216.646 296.991C214.517 296.996 212.875 294.91 213.672 292.936C213.828 292.547 213.911 292.223 213.969 291.808C214.422 288.597 216.063 285.066 220.754 276.342C221.523 274.911 222.456 273.557 223.623 272.427C233.257 263.098 241.753 265.044 244.938 267.342C245.886 268.086 248.349 269.983 251.646 272.438C253.208 273.602 254.954 274.753 256.896 274.593C261.429 274.217 264.451 269.017 265.517 265.973C266.564 263.54 269.703 254.749 273.889 239.053C276.794 225.436 281.309 226.632 283.973 229.77C284.778 230.719 285.461 231.768 286.287 232.698C286.864 233.349 287.58 234.15 288.401 235.063C290.762 237.688 294.414 239.955 296.83 237.38C299.969 234.034 302.034 226.945 302.839 222.628C305.28 212.133 310.931 188.863 314 179.738C317.705 171.662 322.593 174.188 325.28 177.195C325.945 177.939 326.429 178.818 326.871 179.712C330.465 186.997 337.105 200.378 339.463 204.833C341.974 209.578 344.927 209.548 346.09 208.939C346.966 208.43 349.067 206.917 351.366 204.508C352.293 203.537 353.207 202.465 354.484 202.052C356.106 201.528 357.658 201.9 358.733 202.42C359.409 202.747 359.941 203.292 360.436 203.856C361.012 204.513 361.755 205.359 362.548 206.258C364.02 207.926 366.538 209.568 368.068 207.954C368.471 207.529 369.007 206.936 369.315 206.438C371.357 203.136 374.602 190.365 376.087 183.844C376.576 181.794 377.974 176.851 380.07 171.416C380.863 169.36 381.932 166.73 384.135 166.737C390.023 166.755 393.71 188.63 394.922 201.183C396.317 214.263 399.177 241.7 399.456 246.81C399.779 252.725 401.298 258.64 402.629 264.555C402.842 265.499 403.421 267.282 403.997 268.059C406.142 270.947 408.383 265.498 410.071 262.321C412.447 257.848 415.279 254.502 417.264 252.588C418.145 251.739 419.185 251.092 420.259 250.506C424.755 248.052 432.18 243.645 435.382 240.422C438.065 237.723 440.912 237.685 442.825 238.279C443.974 238.636 444.857 239.515 445.852 240.191C447.321 241.189 449.567 242.247 452.125 242.247C457.147 242.247 460.961 232.818 462.24 228.103C464.216 222.932 468.518 211.495 469.913 207.114C471.469 202.23 473.303 198.072 476.651 193.02C477.486 191.762 478.454 190.551 479.762 189.798C484.329 187.166 487.633 190.94 490.239 194.662L490.314 194.769C491.406 196.329 492.605 198.043 494.467 198.398C497.226 198.924 499.247 196.188 501.032 192.489C501.46 191.601 501.929 190.741 502.335 189.843C505.182 183.563 509.489 164.819 511.42 155.556C512.351 152.21 515.257 142.415 519.443 130.004C525.303 117.959 531.883 130.46 534.441 138.217C540.022 155.403 551.672 190.871 553.625 195.251C556.067 200.726 557.462 201.183 561.647 201.183C565.502 201.498 571.715 193.445 575.436 187.715C576.501 186.074 577.653 184.361 579.468 183.631C579.665 183.551 579.865 183.483 580.066 183.428C581.767 182.967 582.998 184.66 584.224 185.928C587.332 189.14 589.704 187.555 590.598 186.126C592.921 183.203 597.443 177.872 600.678 175.065C602.194 173.75 604.318 172.186 605.942 173.365Z" fill="url(#paint0_linear_50_255)"/>
<rect x="145.5" y="185.717" width="79.6617" height="83.2827" rx="20" fill="white"/>
<path d="M195.288 207.684C197.927 207.692 200.455 208.712 202.321 210.521C204.187 212.33 205.239 214.782 205.247 217.341V236.652C205.239 239.211 204.187 241.663 202.321 243.472C200.455 245.281 197.927 246.301 195.288 246.309H175.374C172.735 246.301 170.206 245.281 168.341 243.472C166.475 241.663 165.423 239.211 165.415 236.652V217.341C165.423 214.782 166.475 212.33 168.341 210.521C170.206 208.712 172.735 207.692 175.374 207.684H195.288ZM195.288 203.822H175.374C167.706 203.822 161.432 209.906 161.432 217.341V236.652C161.432 244.088 167.706 250.171 175.374 250.171H195.288C202.956 250.171 209.229 244.088 209.229 236.652V217.341C209.229 209.906 202.956 203.822 195.288 203.822Z" fill="#FA6488"/>
<path d="M198.315 217.53C197.731 217.53 197.161 217.362 196.676 217.047C196.192 216.731 195.814 216.283 195.59 215.758C195.367 215.234 195.309 214.656 195.423 214.099C195.536 213.543 195.817 213.031 196.23 212.629C196.642 212.228 197.167 211.955 197.739 211.844C198.311 211.733 198.904 211.79 199.443 212.007C199.982 212.224 200.442 212.592 200.766 213.065C201.09 213.537 201.263 214.092 201.263 214.66C201.264 215.037 201.188 215.41 201.04 215.759C200.892 216.108 200.675 216.425 200.401 216.691C200.127 216.958 199.802 217.17 199.444 217.314C199.086 217.458 198.702 217.531 198.315 217.53ZM185.538 219.444C187.093 219.444 188.613 219.893 189.906 220.734C191.199 221.575 192.207 222.771 192.802 224.17C193.398 225.569 193.553 227.109 193.25 228.594C192.947 230.079 192.198 231.443 191.098 232.514C189.998 233.585 188.597 234.314 187.072 234.609C185.547 234.905 183.966 234.753 182.529 234.173C181.092 233.594 179.864 232.613 179 231.354C178.136 230.095 177.675 228.614 177.675 227.1C177.677 225.07 178.506 223.124 179.98 221.689C181.454 220.253 183.453 219.446 185.538 219.444ZM185.538 215.616C183.205 215.616 180.925 216.29 178.985 217.552C177.046 218.813 175.534 220.607 174.641 222.705C173.749 224.804 173.515 227.113 173.97 229.34C174.425 231.568 175.549 233.614 177.198 235.22C178.848 236.826 180.949 237.92 183.237 238.363C185.525 238.806 187.896 238.579 190.051 237.71C192.206 236.841 194.048 235.369 195.344 233.48C196.64 231.592 197.332 229.371 197.332 227.1C197.332 224.054 196.089 221.133 193.878 218.98C191.666 216.826 188.666 215.616 185.538 215.616Z" fill="#FA6488"/>
<rect x="263.5" y="32" width="110" height="115" rx="20" fill="white"/>
<path d="M351.594 69.2652C349.115 70.3424 346.491 71.0522 343.807 71.3719C346.628 69.7201 348.749 67.0959 349.773 63.9914C347.106 65.551 344.193 66.6452 341.159 67.2273C339.882 65.8882 338.345 64.823 336.643 64.0963C334.941 63.3696 333.108 62.9966 331.258 63C323.764 63 317.7 68.976 317.7 76.3427C317.695 77.3674 317.812 78.389 318.05 79.3858C312.677 79.1339 307.415 77.7632 302.602 75.3613C297.789 72.9594 293.53 69.5793 290.098 65.4372C288.894 67.467 288.257 69.783 288.254 72.143C288.254 76.7696 290.668 80.8591 294.313 83.255C292.153 83.2038 290.038 82.6322 288.147 81.5889V81.7541C288.147 88.2258 292.828 93.6097 299.024 94.8352C297.859 95.1458 296.659 95.3032 295.453 95.3034C294.597 95.3049 293.743 95.2218 292.904 95.0555C294.626 100.357 299.64 104.212 305.579 104.322C300.753 108.041 294.828 110.052 288.736 110.037C287.654 110.035 286.574 109.971 285.5 109.844C291.698 113.802 298.903 115.895 306.256 115.875C331.229 115.875 344.872 95.5375 344.872 77.8987C344.872 77.3204 344.856 76.742 344.829 76.1775C347.477 74.2939 349.768 71.9531 351.594 69.2652Z" fill="#4CCEEB"/>
<rect x="277.5" y="286" width="96" height="101" rx="20" fill="white"/>
<path d="M339.091 320H311.341C309.825 320 308.5 321.091 308.5 322.589V350.401C308.5 351.907 309.825 353.25 311.341 353.25H339.083C340.607 353.25 341.75 351.898 341.75 350.401V322.589C341.759 321.091 340.607 320 339.091 320ZM318.807 347.716H314.043V332.905H318.807V347.716ZM316.59 330.653H316.556C315.031 330.653 314.044 329.519 314.044 328.098C314.044 326.651 315.057 325.543 316.616 325.543C318.174 325.543 319.128 326.643 319.162 328.098C319.162 329.519 318.174 330.653 316.59 330.653ZM336.216 347.716H331.452V339.618C331.452 337.677 330.759 336.352 329.036 336.352C327.719 336.352 326.94 337.243 326.593 338.11C326.463 338.422 326.428 338.846 326.428 339.28V347.716H321.665V332.905H326.428V334.966C327.121 333.979 328.204 332.559 330.724 332.559C333.851 332.559 336.216 334.62 336.216 339.063L336.216 347.716Z" fill="#68A3DA"/>
<rect x="432.5" width="96" height="101" rx="20" fill="white"/>
<path d="M497.282 43.52C497.282 40.5904 495.083 38.2337 492.367 38.2337C488.687 38.0651 484.935 38 481.1 38H479.905C476.079 38 472.32 38.0651 468.641 38.2344C465.931 38.2344 463.733 40.6041 463.733 43.5337C463.567 45.8507 463.496 48.1683 463.5 50.486C463.494 52.8036 463.569 55.1234 463.726 57.4454C463.726 60.375 465.925 62.7513 468.634 62.7513C472.5 62.9271 476.465 63.0052 480.496 62.9987C484.534 63.0117 488.488 62.9292 492.358 62.7513C495.074 62.7513 497.272 60.375 497.272 57.4454C497.432 55.1213 497.505 52.8036 497.498 50.4795C497.513 48.1618 497.441 45.842 497.282 43.52ZM477.248 56.8725V44.0799L486.878 50.473L477.248 56.8725Z" fill="#FF2525"/>
<rect x="439.5" y="262" width="118.421" height="125" rx="20" fill="white"/>
<path d="M498.718 289.256C479.51 289.256 463.936 304.823 463.936 324.023C463.936 338.255 472.507 350.486 484.759 355.871C484.666 353.45 484.743 350.532 485.364 347.894C486.032 345.069 489.836 328.943 489.836 328.943C489.836 328.943 488.718 326.723 488.718 323.448C488.718 318.295 491.7 314.446 495.426 314.446C498.594 314.446 500.116 316.821 500.116 319.661C500.116 322.843 498.082 327.592 497.041 332C496.172 335.694 498.889 338.69 502.538 338.69C509.122 338.69 513.563 330.231 513.563 320.204C513.563 312.584 508.423 306.888 499.091 306.888C488.548 306.888 481.964 314.757 481.964 323.541C481.964 326.568 482.864 328.71 484.262 330.355C484.899 331.116 484.992 331.426 484.759 332.295C484.588 332.931 484.215 334.468 484.044 335.089C483.812 335.974 483.097 336.284 482.305 335.958C477.445 333.971 475.178 328.663 475.178 322.672C475.178 312.801 483.517 300.959 500.038 300.959C513.314 300.959 522.056 310.566 522.056 320.872C522.056 334.515 514.463 344.696 503.283 344.696C499.526 344.696 496.001 342.663 494.79 340.366C494.79 340.366 492.771 348.375 492.336 349.927C491.607 352.612 490.162 355.281 488.843 357.377C492.044 358.321 495.365 358.802 498.703 358.805C517.911 358.805 533.485 343.237 533.485 324.038C533.485 304.839 517.926 289.256 498.718 289.256Z" fill="#FF5555"/>
<rect x="593.5" y="101" width="109.669" height="115" rx="20" fill="white"/>
<path fill-rule="evenodd" clip-rule="evenodd" d="M680.321 158.312C680.321 140.541 665.999 126.132 648.334 126.132C630.67 126.132 616.348 140.541 616.348 158.312C616.348 174.374 628.043 187.687 643.336 190.103V167.617H635.213V158.312H643.336V151.223C643.336 143.159 648.113 138.701 655.419 138.701C658.919 138.701 662.58 139.33 662.58 139.33V147.25H658.544C654.573 147.25 653.331 149.73 653.331 152.279V158.312H662.202L660.785 167.617H653.332V190.106C668.626 187.691 680.321 174.378 680.321 158.312Z" fill="#3A63FF"/>
<defs>
<filter id="filter0_f_50_255" x="0.5" y="66" width="823" height="468" filterUnits="userSpaceOnUse" color-interpolation-filters="sRGB">
<feFlood flood-opacity="0" result="BackgroundImageFix"/>
<feBlend mode="normal" in="SourceGraphic" in2="BackgroundImageFix" result="shape"/>
<feGaussianBlur stdDeviation="100" result="effect1_foregroundBlur_50_255"/>
</filter>
<linearGradient id="paint0_linear_50_255" x1="423" y1="125" x2="423" y2="297" gradientUnits="userSpaceOnUse">
<stop stop-color="white"/>
<stop offset="1" stop-color="#D3EFFF" stop-opacity="0"/>
</linearGradient>
</defs>
</svg>
