<svg width="177" height="93" viewBox="0 0 177 93" fill="none" xmlns="http://www.w3.org/2000/svg">
<rect width="177" height="93" rx="46.5" fill="#FEB800"/>
<path d="M62.6787 64.8353L26.2713 29.1066L25.9596 28.8007V28.3641V22.7617V20.2608L27.7334 22.0238L66.642 60.6954V42.1264V39.7279L68.3932 41.3668L72.8179 45.5077L73.1474 45.8161V46.2673V70.0166V71.057H72.107H48.1401H47.6934L47.3857 70.7331L43.4527 66.5922L41.784 64.8353H44.207H62.6787Z" fill="black" stroke="black" stroke-width="2.08072"/>
<path d="M108.814 36.228H113.518V39H105.223V24.258H108.814V36.228ZM118.821 27.135V30.117H123.63V32.889H118.821V36.123H124.26V39H115.23V24.258H124.26V27.135H118.821ZM137.197 24.258V27.135H133.291V39H129.7V27.135H125.794V24.258H137.197ZM144.333 39.147C143.255 39.147 142.289 38.972 141.435 38.622C140.581 38.272 139.895 37.754 139.377 37.068C138.873 36.382 138.607 35.556 138.579 34.59H142.401C142.457 35.136 142.646 35.556 142.968 35.85C143.29 36.13 143.71 36.27 144.228 36.27C144.76 36.27 145.18 36.151 145.488 35.913C145.796 35.661 145.95 35.318 145.95 34.884C145.95 34.52 145.824 34.219 145.572 33.981C145.334 33.743 145.033 33.547 144.669 33.393C144.319 33.239 143.815 33.064 143.157 32.868C142.205 32.574 141.428 32.28 140.826 31.986C140.224 31.692 139.706 31.258 139.272 30.684C138.838 30.11 138.621 29.361 138.621 28.437C138.621 27.065 139.118 25.994 140.112 25.224C141.106 24.44 142.401 24.048 143.997 24.048C145.621 24.048 146.93 24.44 147.924 25.224C148.918 25.994 149.45 27.072 149.52 28.458H145.635C145.607 27.982 145.432 27.611 145.11 27.345C144.788 27.065 144.375 26.925 143.871 26.925C143.437 26.925 143.087 27.044 142.821 27.282C142.555 27.506 142.422 27.835 142.422 28.269C142.422 28.745 142.646 29.116 143.094 29.382C143.542 29.648 144.242 29.935 145.194 30.243C146.146 30.565 146.916 30.873 147.504 31.167C148.106 31.461 148.624 31.888 149.058 32.448C149.492 33.008 149.709 33.729 149.709 34.611C149.709 35.451 149.492 36.214 149.058 36.9C148.638 37.586 148.022 38.132 147.21 38.538C146.398 38.944 145.439 39.147 144.333 39.147Z" fill="black"/>
<path d="M90.5567 67.9248C89.4787 67.9248 88.5127 67.7498 87.6587 67.3998C86.8047 67.0498 86.1187 66.5318 85.6007 65.8458C85.0967 65.1598 84.8307 64.3338 84.8027 63.3678H88.6247C88.6807 63.9138 88.8697 64.3338 89.1917 64.6278C89.5137 64.9078 89.9337 65.0478 90.4517 65.0478C90.9837 65.0478 91.4037 64.9288 91.7117 64.6908C92.0197 64.4388 92.1737 64.0958 92.1737 63.6618C92.1737 63.2978 92.0477 62.9968 91.7957 62.7588C91.5577 62.5208 91.2567 62.3248 90.8927 62.1708C90.5427 62.0168 90.0387 61.8418 89.3807 61.6458C88.4287 61.3518 87.6517 61.0578 87.0497 60.7638C86.4477 60.4698 85.9297 60.0358 85.4957 59.4618C85.0617 58.8878 84.8447 58.1388 84.8447 57.2148C84.8447 55.8428 85.3417 54.7718 86.3357 54.0018C87.3297 53.2178 88.6247 52.8258 90.2207 52.8258C91.8447 52.8258 93.1537 53.2178 94.1477 54.0018C95.1417 54.7718 95.6737 55.8498 95.7437 57.2358H91.8587C91.8307 56.7598 91.6557 56.3888 91.3337 56.1228C91.0117 55.8428 90.5987 55.7028 90.0947 55.7028C89.6607 55.7028 89.3107 55.8218 89.0447 56.0598C88.7787 56.2838 88.6457 56.6128 88.6457 57.0468C88.6457 57.5228 88.8697 57.8938 89.3177 58.1598C89.7657 58.4258 90.4657 58.7128 91.4177 59.0208C92.3697 59.3428 93.1397 59.6508 93.7277 59.9448C94.3297 60.2388 94.8477 60.6658 95.2817 61.2258C95.7157 61.7858 95.9327 62.5068 95.9327 63.3888C95.9327 64.2288 95.7157 64.9918 95.2817 65.6778C94.8617 66.3638 94.2457 66.9098 93.4337 67.3158C92.6217 67.7218 91.6627 67.9248 90.5567 67.9248ZM108.748 53.0358V55.9128H104.842V67.7778H101.251V55.9128H97.3446V53.0358H108.748ZM119.727 65.1738H114.225L113.343 67.7778H109.584L114.918 53.0358H119.076L124.41 67.7778H120.609L119.727 65.1738ZM118.803 62.4018L116.976 57.0048L115.17 62.4018H118.803ZM133.551 67.7778L130.485 62.2128H129.624V67.7778H126.033V53.0358H132.06C133.222 53.0358 134.209 53.2388 135.021 53.6448C135.847 54.0508 136.463 54.6108 136.869 55.3248C137.275 56.0248 137.478 56.8088 137.478 57.6768C137.478 58.6568 137.198 59.5318 136.638 60.3018C136.092 61.0718 135.28 61.6178 134.202 61.9398L137.604 67.7778H133.551ZM129.624 59.6718H131.85C132.508 59.6718 132.998 59.5108 133.32 59.1888C133.656 58.8668 133.824 58.4118 133.824 57.8238C133.824 57.2638 133.656 56.8228 133.32 56.5008C132.998 56.1788 132.508 56.0178 131.85 56.0178H129.624V59.6718ZM150.337 53.0358V55.9128H146.431V67.7778H142.84V55.9128H138.934V53.0358H150.337Z" fill="black"/>
</svg>
