<svg width="169" height="93" viewBox="0 0 169 93" fill="none" xmlns="http://www.w3.org/2000/svg">
<ellipse cx="84.0339" cy="46.4769" rx="84.0339" ry="46.4769" fill="#ED5D2C"/>
<path d="M47.6341 35.3498L39.7907 56.3976L41.1727 67.653L36.081 68.2782L34.699 57.0227L21.952 38.5032L27.6244 37.8067L36.6855 52.1544L42.0064 36.0408L47.6341 35.3498ZM69.6834 64.4697C66.7951 64.8244 64.0478 64.4816 61.4416 63.4415C58.8616 62.3679 56.7088 60.7129 54.9834 58.4765C53.2841 56.2067 52.248 53.5532 51.8751 50.516C51.5022 47.4788 51.8674 44.6683 52.9707 42.0846C54.1039 39.4972 55.7941 37.3855 58.0415 35.7494C60.315 34.0799 62.8959 33.0678 65.7842 32.7132C68.7023 32.3549 71.4513 32.7125 74.0314 33.7861C76.6376 34.8263 78.7885 36.4664 80.4841 38.7064C82.1798 40.9465 83.214 43.5851 83.587 46.6223C83.9599 49.6595 83.5965 52.4848 82.4968 55.0983C81.3935 57.682 79.705 59.8086 77.4316 61.4782C75.1842 63.1142 72.6015 64.1114 69.6834 64.4697ZM69.1405 60.0479C71.195 59.7957 72.9696 59.1093 74.4642 57.9888C75.9551 56.8385 77.0412 55.345 77.7224 53.5083C78.4298 51.6382 78.6427 49.5567 78.3612 47.2639C78.0797 44.9711 77.3714 43.0179 76.2362 41.4042C75.1309 39.7869 73.7176 38.6154 71.9963 37.8897C70.2751 37.1641 68.3872 36.9274 66.3326 37.1797C64.278 37.4319 62.5034 38.1183 61.0088 39.2388C59.5143 40.3593 58.4115 41.8397 57.7004 43.6801C57.0192 45.5168 56.8193 47.5816 57.1009 49.8744C57.3824 52.1671 58.0776 54.1371 59.1866 55.7842C60.3218 57.3979 61.7518 58.5825 63.4767 59.3379C65.198 60.0635 67.0859 60.3002 69.1405 60.0479ZM91.747 29.9334L94.1765 49.7198C94.4653 52.0722 95.2933 53.7689 96.6603 54.8101C98.0572 55.8476 99.8573 56.231 102.061 55.9605C104.294 55.6863 105.948 54.8787 107.023 53.5377C108.127 52.1931 108.535 50.3447 108.246 47.9923L105.816 28.2059L110.908 27.5807L113.327 47.2778C113.637 49.8088 113.35 52.0203 112.464 53.9124C111.578 55.8045 110.265 57.2956 108.525 58.3858C106.784 59.476 104.798 60.1582 102.565 60.4324C100.331 60.7066 98.2386 60.5253 96.2864 59.8885C94.3641 59.248 92.759 58.1151 91.4714 56.49C90.1837 54.8648 89.3845 52.7867 89.0737 50.2557L86.6552 30.5586L91.747 29.9334ZM137.473 55.8288L128.802 44.2895L124.916 44.7667L126.441 57.1834L121.349 57.8086L117.538 26.7667L128.257 25.4505C130.639 25.158 132.7 25.3281 134.44 25.9608C136.21 26.5898 137.583 27.5547 138.559 28.8554C139.564 30.1526 140.173 31.6646 140.385 33.3917C140.634 35.4165 140.265 37.3357 139.279 39.1494C138.319 40.9297 136.654 42.2675 134.286 43.1629L143.547 55.083L137.473 55.8288ZM124.417 40.7022L130.045 40.0112C131.951 39.7772 133.321 39.1253 134.157 38.0554C135.023 36.9819 135.357 35.6412 135.16 34.0333C134.962 32.4254 134.332 31.2333 133.27 30.457C132.203 29.6509 130.703 29.3667 128.767 29.6043L123.139 30.2953L124.417 40.7022Z" fill="white"/>
</svg>
